<svg width="171" height="27" viewBox="0 0 171 27" fill="none" xmlns="http://www.w3.org/2000/svg">
<path d="M0.0810427 0V8.50909H4.21422L0 12.4364V14.7273L8.34739 6.87273H1.7019V1.63636H20.4227L0 22.2545V24.6273L24.3938 0H0.0810427Z" fill="#FAFBFE"/>
<path d="M18.8829 19.4728H25.5284V24.6274H6.80752L27.2303 4.09099V1.71826L2.83643 26.2637H27.2303V17.8364H23.0971L27.2303 13.9092V11.7001L18.8829 19.4728Z" fill="#FAFBFE"/>
<path d="M42.7095 10.3909H49.5981L42.7095 15.9546V17.3455H51.7052V15.9546H44.8166L51.7052 10.3909V8.91821H42.7095V10.3909Z" fill="#FAFBFE"/>
<path d="M63.7805 9.24555C62.9701 8.91828 62.0786 8.75464 60.944 8.75464C59.8094 8.75464 58.8369 8.91828 58.1075 9.24555C57.2971 9.57282 56.7298 10.0637 56.3246 10.7183C55.9194 11.3728 55.6763 12.191 55.6763 13.091C55.6763 13.991 55.9194 14.8092 56.3246 15.4637C56.7298 16.1183 57.3782 16.6092 58.1075 16.9365C58.918 17.2637 59.8905 17.4274 60.944 17.4274C62.0786 17.4274 63.0511 17.2637 63.7805 16.9365C64.5099 16.6092 65.1583 16.1183 65.5635 15.4637C65.9687 14.8092 66.2118 13.991 66.2118 13.091C66.2118 12.191 65.9687 11.3728 65.5635 10.7183C65.1583 10.0637 64.5099 9.65464 63.7805 9.24555ZM63.9426 14.8092C63.6185 15.2183 63.2132 15.5455 62.727 15.791C62.2407 16.0365 61.5924 16.1183 60.944 16.1183C60.2957 16.1183 59.6474 16.0365 59.0801 15.791C58.5128 15.5455 58.1076 15.3001 57.7834 14.8092C57.4592 14.4001 57.2971 13.8274 57.2971 13.1728C57.2971 12.5183 57.4592 11.9455 57.7834 11.5365C58.1076 11.1274 58.5128 10.8001 59.0801 10.5546C59.6474 10.3092 60.2147 10.2274 60.944 10.2274C61.6734 10.2274 62.2407 10.3092 62.727 10.5546C63.2132 10.8001 63.6995 11.1274 63.9426 11.5365C64.1857 11.9455 64.4289 12.5183 64.4289 13.1728C64.4289 13.8274 64.2668 14.3183 63.9426 14.8092Z" fill="#FAFBFE"/>
<path d="M72.209 8.91821H70.426V17.3455H77.7199V15.9546H72.209V8.91821Z" fill="#FAFBFE"/>
<path d="M80.0701 10.3909H83.6359V17.3455H85.3378V10.3909H88.9037V8.91821H80.0701V10.3909Z" fill="#FAFBFE"/>
<path d="M95.3871 8.91821L91.416 17.4273H93.28L94.0904 15.5455H98.4667L99.2771 17.4273H101.141L97.2511 8.91821H95.3871ZM94.8198 14.0728L96.3596 10.6364L97.8994 14.0728H94.8198Z" fill="#FAFBFE"/>
<path d="M113.054 15.1364L106.814 8.91821H105.031V17.3455H106.814V11.2091L113.054 17.3455H114.756V8.91821H113.054V15.1364Z" fill="#FAFBFE"/>
<path d="M132.667 9.57276C132.343 9.3273 132.018 9.16367 131.613 9.08185C131.208 9.00003 130.803 8.91821 130.317 8.91821H125.13V17.4273H126.832V14.6455H130.317C130.803 14.6455 131.208 14.5637 131.613 14.4819C132.018 14.4 132.343 14.2364 132.667 13.9909C132.991 13.7455 133.234 13.5 133.396 13.0909C133.558 12.7637 133.639 12.2728 133.639 11.7818C133.639 11.2909 133.558 10.8 133.396 10.4728C133.153 10.1455 132.91 9.81821 132.667 9.57276ZM131.451 12.8455C131.208 13.0909 130.803 13.2546 130.398 13.2546H126.751V10.3909H130.398C130.884 10.3909 131.208 10.4728 131.451 10.7182C131.694 10.9637 131.856 11.2909 131.856 11.7818C131.856 12.2728 131.775 12.6 131.451 12.8455Z" fill="#FAFBFE"/>
<path d="M139.88 8.91821L135.908 17.4273H137.772L138.583 15.5455H142.959L143.77 17.4273H145.634L141.662 8.91821H139.88ZM139.312 14.0728L140.852 10.6364L142.392 14.0728H139.312Z" fill="#FAFBFE"/>
<path d="M157.142 9.57276C156.818 9.3273 156.493 9.16367 156.088 9.08185C155.683 9.00003 155.278 8.91821 154.791 8.91821H149.605V17.4273H151.307V14.6455H154.791C155.278 14.6455 155.683 14.5637 156.088 14.4819C156.493 14.4 156.818 14.2364 157.142 13.9909C157.466 13.7455 157.709 13.5 157.871 13.0909C158.033 12.7637 158.114 12.2728 158.114 11.7818C158.114 11.2909 158.033 10.8 157.871 10.4728C157.709 10.1455 157.466 9.81821 157.142 9.57276ZM156.007 12.8455C155.764 13.0909 155.359 13.2546 154.954 13.2546H151.307V10.3909H154.954C155.44 10.3909 155.764 10.4728 156.007 10.7182C156.25 10.9637 156.412 11.2909 156.412 11.7818C156.412 12.2728 156.25 12.6 156.007 12.8455Z" fill="#FAFBFE"/>
<path d="M170.595 10.4728C170.433 10.1455 170.19 9.81821 169.865 9.57276C169.541 9.3273 169.217 9.16367 168.812 9.08185C168.407 9.00003 168.001 8.91821 167.515 8.91821H162.328V17.4273H164.03V14.6455H167.515C168.001 14.6455 168.407 14.5637 168.812 14.4819C169.217 14.4 169.541 14.2364 169.865 13.9909C170.19 13.7455 170.433 13.5 170.595 13.0909C170.757 12.7637 170.838 12.2728 170.838 11.7818C170.838 11.2909 170.757 10.8819 170.595 10.4728ZM168.731 12.8455C168.488 13.0909 168.082 13.2546 167.677 13.2546H164.03V10.3909H167.677C168.163 10.3909 168.488 10.4728 168.731 10.7182C168.974 10.9637 169.136 11.2909 169.136 11.7818C169.136 12.2728 168.974 12.6 168.731 12.8455Z" fill="#FAFBFE"/>
</svg>
