<svg width="140" height="140" viewBox="0 0 140 140" fill="none" xmlns="http://www.w3.org/2000/svg">
<circle cx="53.9999" cy="70" r="39.8361" stroke="white" stroke-width="2"/>
<path d="M8.97007 65.7323C9.49221 65.5523 9.76961 64.9832 9.58966 64.461C9.4097 63.9389 8.84054 63.6615 8.31839 63.8414L8.97007 65.7323ZM99.6816 63.8414C99.1595 63.6615 98.5903 63.9389 98.4103 64.461C98.2304 64.9832 98.5078 65.5523 99.0299 65.7323L99.6816 63.8414ZM42.4406 82.0362C42.8499 81.6654 42.8811 81.033 42.5103 80.6237L36.4678 73.9538C36.097 73.5445 35.4646 73.5133 35.0553 73.8841C34.646 74.2549 34.6148 74.8873 34.9856 75.2965L40.3567 81.2254L34.4279 86.5965C34.0186 86.9673 33.9874 87.5997 34.3582 88.009C34.729 88.4183 35.3614 88.4495 35.7707 88.0787L42.4406 82.0362ZM66.1815 80.2963C65.6299 80.3235 65.2048 80.7927 65.232 81.3444C65.2592 81.896 65.7285 82.3211 66.2801 82.2938L66.1815 80.2963ZM2 70.5186C2 69.9465 2.38403 69.1915 3.5962 68.2979C4.78385 67.4225 6.58699 66.5536 8.97007 65.7323L8.31839 63.8414C5.8501 64.6921 3.83113 65.6401 2.40951 66.688C1.0124 67.7179 0 68.9927 0 70.5186H2ZM99.0299 65.7323C101.413 66.5536 103.216 67.4225 104.404 68.2979C105.616 69.1915 106 69.9465 106 70.5186H108C108 68.9927 106.988 67.7179 105.59 66.688C104.169 65.6401 102.15 64.6921 99.6816 63.8414L99.0299 65.7323ZM41.8185 80.2963C30.1709 79.7215 20.0524 78.3421 12.8714 76.47C9.27309 75.5319 6.469 74.4843 4.58742 73.3855C2.6313 72.2432 2 71.2449 2 70.5186H0C0 72.4102 1.54302 73.9237 3.57885 75.1126C5.68921 76.345 8.69469 77.448 12.3669 78.4053C19.7269 80.3241 29.993 81.7151 41.7199 82.2938L41.8185 80.2963ZM106 70.5186C106 71.2449 105.369 72.2432 103.413 73.3855C101.531 74.4843 98.7269 75.5319 95.1286 76.47C87.9476 78.3421 77.8291 79.7215 66.1815 80.2963L66.2801 82.2938C78.007 81.7151 88.2731 80.3241 95.6331 78.4053C99.3053 77.448 102.311 76.345 104.421 75.1126C106.457 73.9237 108 72.4102 108 70.5186H106Z" fill="white"/>
<mask id="mask0" mask-type="alpha" maskUnits="userSpaceOnUse" x="13" y="29" width="82" height="82">
<circle cx="53.9999" cy="70" r="40.8361" fill="#C4C4C4"/>
</mask>
<g mask="url(#mask0)">
<path fill-rule="evenodd" clip-rule="evenodd" d="M34.8851 59.5738C44.0023 59.5738 51.3933 52.1828 51.3933 43.0656C51.3933 33.9483 44.0023 26.5574 34.8851 26.5574C25.7679 26.5574 18.3769 33.9483 18.3769 43.0656C18.3769 45.4067 18.8643 47.6341 19.7431 49.6517C14.9295 51.1131 11.4261 55.586 11.4261 60.877C11.4261 62.8911 11.9337 64.7866 12.828 66.4426C4.36652 69.8472 -1.60669 78.1318 -1.60669 87.8115C-1.60669 100.528 8.70177 110.836 21.4179 110.836C34.134 110.836 44.4425 100.528 44.4425 87.8115C44.4425 79.1863 39.6998 71.6687 32.68 67.7245C34.0677 65.7977 34.8851 63.4328 34.8851 60.877C34.8851 60.4365 34.8608 60.0016 34.8135 59.5736L34.8851 59.5738ZM78.0242 51.6065C77.7109 54.9642 78.8405 58.431 81.4125 61.0006C81.6401 61.2279 81.8746 61.444 82.1155 61.6487C75.2156 61.4465 68.2508 63.9802 62.987 69.2489C52.8545 79.3907 52.8622 95.8263 63.004 105.959C73.1458 116.091 89.5814 116.083 99.7138 105.942C109.846 95.7998 109.839 79.3643 99.6968 69.2318C97.5222 67.0593 95.0583 65.3529 92.4292 64.1127C94.4712 63.6268 96.4081 62.5868 98.0006 60.9929C102.579 56.4101 102.576 48.9834 97.9929 44.4049C94.5395 40.9547 89.4712 40.1064 85.2237 41.8588C85.6519 38.2569 84.4832 34.5015 81.7181 31.739C76.9323 26.9576 69.1766 26.9612 64.3952 31.747C60.972 35.1734 60.0015 40.1221 61.4826 44.4118C61.1364 44.6473 60.8073 44.9186 60.5004 45.2258C57.8701 47.8586 57.8721 52.1251 60.5048 54.7554C63.1376 57.3857 67.4041 57.3837 70.0344 54.751C70.683 54.1018 71.1716 53.3533 71.5001 52.5544C73.7005 52.8354 75.9626 52.5194 78.0242 51.6065Z" fill="url(#paint0_linear)"/>
</g>
<defs>
<linearGradient id="paint0_linear" x1="53.131" y1="-26.8771" x2="56.6064" y2="117.787" gradientUnits="userSpaceOnUse">
<stop stop-color="white"/>
<stop offset="0.917484" stop-color="white" stop-opacity="0"/>
</linearGradient>
</defs>
</svg>
