<svg width="141" height="140" viewBox="0 0 141 140" fill="none" xmlns="http://www.w3.org/2000/svg">
<path d="M11.5742 42.8762V78.5643" stroke="white" stroke-width="2" stroke-linecap="round"/>
<path d="M1 59.1782C1 49.6614 8.04951 46.6947 11.5743 46.401V75.9208C5.58218 75.9208 2.02805 82.6766 1 86.0545V59.1782Z" fill="url(#paint0_linear)"/>
<path d="M13.3366 75.9208C6.5233 75.9208 1 81.4441 1 88.2574C1 95.0708 6.5233 100.594 13.3366 100.594H90V53.4505H57.8366M17.7426 53.4505H50.7871" stroke="white" stroke-width="2" stroke-linecap="round"/>
<path d="M13.3366 45.9604C6.5233 45.9604 1 51.4837 1 58.297V89.1386" stroke="white" stroke-width="2" stroke-linecap="round"/>
<path d="M39.4477 22.3411L35.0747 24.8659L57.8081 64.2414L62.5194 67.352L62.1811 61.7166L39.4477 22.3411Z" stroke="white" stroke-width="2" stroke-linecap="round"/>
<path d="M63.2695 59.3256C62.7417 60.8969 61.6608 62.2894 60.1125 63.1834C58.5642 64.0773 56.8177 64.3171 55.1931 63.9886" stroke="white" stroke-width="2" stroke-linecap="round"/>
<rect x="81.1882" y="60.0594" width="33.9257" height="4.40594" rx="2.20297" transform="rotate(90 81.1882 60.0594)" fill="url(#paint1_linear)"/>
<rect x="72.3762" y="60.0594" width="33.9257" height="4.40594" rx="2.20297" transform="rotate(90 72.3762 60.0594)" fill="url(#paint2_linear)"/>
<defs>
<linearGradient id="paint0_linear" x1="6.28713" y1="93.7649" x2="6.28873" y2="39.7921" gradientUnits="userSpaceOnUse">
<stop stop-color="white"/>
<stop offset="0.917484" stop-color="white" stop-opacity="0"/>
</linearGradient>
<linearGradient id="paint1_linear" x1="81.1882" y1="62.2624" x2="119.637" y2="62.2624" gradientUnits="userSpaceOnUse">
<stop stop-color="white"/>
<stop offset="0.917484" stop-color="white" stop-opacity="0"/>
</linearGradient>
<linearGradient id="paint2_linear" x1="72.3762" y1="62.2624" x2="110.825" y2="62.2624" gradientUnits="userSpaceOnUse">
<stop stop-color="white"/>
<stop offset="0.917484" stop-color="white" stop-opacity="0"/>
</linearGradient>
</defs>
</svg>
