<svg width="317" height="87" viewBox="0 0 317 87" fill="none" xmlns="http://www.w3.org/2000/svg">
<path fill-rule="evenodd" clip-rule="evenodd" d="M302.954 52.3216C278.864 50.4784 254.791 48.6366 230.713 46.8526C221.073 46.1383 211.514 45.2824 202.021 44.4324C179.522 42.4177 157.397 40.4366 135.447 40.4543C119.657 40.4671 103.317 42.8813 86.5287 45.3618C81.533 46.0999 76.4976 46.8438 71.4251 47.5321C69.9322 47.7347 68.4457 47.9353 66.9654 48.1351C46.8532 50.8492 27.8817 53.4094 9.4432 58.6925L2.55713 34.6596C22.8222 28.8531 43.5321 26.0643 63.279 23.4051C64.8804 23.1894 66.4755 22.9746 68.0635 22.7592C72.445 22.1646 77.0168 21.4869 81.7213 20.7896C98.7954 18.2587 117.617 15.4688 135.427 15.4543C158.565 15.4356 182.496 17.5768 205.464 19.6319C214.69 20.4573 223.76 21.2689 232.561 21.921C256.671 23.7074 280.777 25.5517 304.865 27.3947C308.766 27.6932 312.667 27.9917 316.568 28.2898L314.662 53.2171C310.759 52.9187 306.856 52.6201 302.954 52.3216Z" fill="#5AE692" fill-opacity="0.82"/>
</svg>
